<svg id="Calque_3" data-name="Calque 3" xmlns="http://www.w3.org/2000/svg" viewBox="0 0 65.33 35.91"><defs><style>.cls-1{font-size:9.41px;font-family:MyriadPro-Semibold, Myriad Pro;font-weight:600;}.cls-1,.cls-5{fill:#1d1d1b;}.cls-2{letter-spacing:0em;}.cls-3{font-size:12.05px;font-family:MyriadPro-Light, Myriad Pro;font-weight:300;}.cls-10,.cls-3{fill:#394867;}.cls-4{letter-spacing:0.07em;}.cls-6,.cls-8{fill:#9ba3b3;}.cls-6,.cls-7{stroke:#3a4867;stroke-linecap:round;stroke-linejoin:round;stroke-width:0.2px;}.cls-7{fill:none;}.cls-9{fill:#3a4867;}.cls-10{opacity:0.25;}</style></defs><text class="cls-1" transform="translate(9.95 14.49)"><tspan class="cls-2">Q</tspan><tspan x="6.67" y="0">uick</tspan></text><text class="cls-3" transform="translate(9.29 25.43)">Baluc<tspan class="cls-4" x="25.88" y="0">h</tspan><tspan x="33.19" y="0">on</tspan></text><rect class="cls-5" x="10.27" y="16.1" width="44.14" height="0.19" rx="0.09"/><path class="cls-6" d="M45.91,15.11a1.46,1.46,0,0,1-.63.51l-.05,0-.08,0-.08,0-.07,0a1.63,1.63,0,0,0-.45.25c-.14.11-.22.35-.3.31a3.13,3.13,0,0,1-1-.8A1.66,1.66,0,0,1,43,14.19c.12,0,.07.55.55.59.32,0,.39-.27.55-.52a.53.53,0,0,1,.34-.26c.15,0,.27.31.55.37h0c.27,0,.48-.41.68-.39s.09.38.45.43.43-.29.5-.26S46.24,14.69,45.91,15.11Z"/><path class="cls-7" d="M44.47,16.05a.83.83,0,0,1-.33-.34,1.34,1.34,0,0,1-.08-.49"/><path class="cls-7" d="M44.9,15.78a.42.42,0,0,1-.17-.13.66.66,0,0,1,0-.31"/><path class="cls-8" d="M44.75,26a3.66,3.66,0,0,1-1.3-.25,2.08,2.08,0,0,1-.82-.62A3.27,3.27,0,0,1,42,22.78a5,5,0,0,1,1.4-3.23l.07-.07a9.36,9.36,0,0,0,.8-1A3.64,3.64,0,0,0,44.71,17a.38.38,0,0,0,.12-.18,1.31,1.31,0,0,1,.22-.32h.2l.14,0a.31.31,0,0,0,.15-.08l0-.07,0,0a8.38,8.38,0,0,1,.77.54,5.16,5.16,0,0,1,1.54,1.9A.66.66,0,0,1,48,19a6.2,6.2,0,0,1,.42,4.12,4,4,0,0,1-2.09,2.56A4.19,4.19,0,0,1,44.75,26Z"/><path class="cls-9" d="M45.61,16.53a6.36,6.36,0,0,1,.72.51,5,5,0,0,1,1.51,1.88.54.54,0,0,1,.07.13,6.06,6.06,0,0,1,.41,4.06,3.79,3.79,0,0,1-2,2.48,4,4,0,0,1-1.53.33,3.46,3.46,0,0,1-1.27-.25,2,2,0,0,1-.78-.58,3.26,3.26,0,0,1-.64-2.31,4.88,4.88,0,0,1,1.38-3.16l.07-.08a10.67,10.67,0,0,0,.81-1,4.09,4.09,0,0,0,.48-1.48.55.55,0,0,0,.11-.17,1,1,0,0,1,.2-.29l.12,0,.15,0a.25.25,0,0,0,.22-.11m-.07-.29a1.3,1.3,0,0,1-.08.17.09.09,0,0,1-.07,0c-.07,0-.18,0-.27,0a.15.15,0,0,0-.13.05c-.24.21-.26.48-.35.48h0v0a3.4,3.4,0,0,1-.45,1.48,9.86,9.86,0,0,1-.86,1.06,5.09,5.09,0,0,0-1.43,3.28,3.43,3.43,0,0,0,.69,2.45,2.16,2.16,0,0,0,.86.64,3.67,3.67,0,0,0,1.34.26,4.27,4.27,0,0,0,1.61-.34,4,4,0,0,0,2.15-2.62A6.29,6.29,0,0,0,48.1,19a1.09,1.09,0,0,0-.08-.15,5.29,5.29,0,0,0-1.56-1.94,9.78,9.78,0,0,0-.87-.6.1.1,0,0,1-.05,0Z"/><path class="cls-7" d="M44.9,16.91A2.86,2.86,0,0,1,45,18a3.52,3.52,0,0,1-.47,1.36"/><path class="cls-7" d="M45.38,16.51a2.18,2.18,0,0,1,.43,1.78,4.11,4.11,0,0,1-.31,1.56"/><path class="cls-10" d="M48.52,23.16a4,4,0,0,1-2.15,2.62,3.83,3.83,0,0,1-2.95.08,2.16,2.16,0,0,1-.86-.64.32.32,0,0,1,0-.09,5.16,5.16,0,0,0,3.8-.51c2.57-1.93,1.51-5.76,1.51-5.76h0l.11,0a1.09,1.09,0,0,1,.08.15A6.29,6.29,0,0,1,48.52,23.16Z"/><path class="cls-9" d="M45.61,16.53c.23.15.48.31.73.51a5.12,5.12,0,0,1,1.57,2,6.06,6.06,0,0,1,.41,4.06,3.83,3.83,0,0,1-2,2.49,4.12,4.12,0,0,1-1.53.32,3.5,3.5,0,0,1-1.27-.25,2.79,2.79,0,0,1-1.42-2.89,4.85,4.85,0,0,1,1.38-3.16l.14-.16a8.18,8.18,0,0,0,.73-.93,3.7,3.7,0,0,0,.48-1.46.52.52,0,0,0,.12-.18,1,1,0,0,1,.2-.29l.11,0,.15,0a.27.27,0,0,0,.23-.11m-.08-.29a.44.44,0,0,1-.08.17.08.08,0,0,1-.07,0c-.07,0-.17,0-.26,0a.15.15,0,0,0-.13.05c-.24.21-.26.49-.35.49l0,0v0a3.32,3.32,0,0,1-.45,1.47,9.18,9.18,0,0,1-.85,1.07,5,5,0,0,0-1.43,3.28,3,3,0,0,0,1.55,3.09,3.71,3.71,0,0,0,1.34.26,4.18,4.18,0,0,0,1.6-.34,4,4,0,0,0,2.15-2.62A6.17,6.17,0,0,0,48.09,19a5.29,5.29,0,0,0-1.63-2.09,9.16,9.16,0,0,0-.87-.6l-.06,0Z"/><path class="cls-6" d="M45.5,15.75a.25.25,0,0,0-.31-.15l-.09,0a2.16,2.16,0,0,0-.6.32,1,1,0,0,0-.34.36l0,.08a.61.61,0,0,0,0,.4.48.48,0,0,0,.2.22c.16.1.41,0,.77-.24a1.25,1.25,0,0,0,.47-.53A.58.58,0,0,0,45.5,15.75Z"/><path class="cls-10" d="M45,18.16l.08-.08a2.16,2.16,0,0,0,.28-1c0-.27.36,1,.52.77s-.1-1,0-1.05.29.24.5.36a1.35,1.35,0,0,0,.53.15l-1.27-1-.59.4-.34.31a2.61,2.61,0,0,0-.13.63s.22-.32.26-.31S44.89,18.32,45,18.16Z"/><path class="cls-10" d="M44.44,16.38s.68-.35.7-.28-.19.3-.15.35.39-.36.34-.49S44.39,16.26,44.44,16.38Z"/><path class="cls-10" d="M43.86,14.65c.27.15.46-.39.61-.16s.09.59.28.66.58-.63.7-.46-.1.58-.17.69-.13.12-.06.18.33-.09.38-.13.89-1,.89-1H46L45.73,14l-.56.34s-.35.05-.47-.07-.24-.31-.36-.24A4.59,4.59,0,0,0,43.86,14.65Z"/></svg>