<svg xmlns="http://www.w3.org/2000/svg" viewBox="0 0 55.66 27.09"><defs><style>.cls-1{fill:#f0f6f9;}.cls-2{font-size:9.41px;font-family:MyriadPro-Semibold, Myriad Pro;font-weight:600;}.cls-2,.cls-6{fill:#1d1d1b;}.cls-3{letter-spacing:0em;}.cls-4{font-size:12.05px;font-family:MyriadPro-Light, Myriad Pro;font-weight:300;}.cls-11,.cls-4{fill:#394867;}.cls-5{letter-spacing:0.07em;}.cls-7,.cls-9{fill:#9ba3b3;}.cls-7,.cls-8{stroke:#3a4867;stroke-linecap:round;stroke-linejoin:round;stroke-width:0.2px;}.cls-8{fill:none;}.cls-10{fill:#3a4867;}.cls-11{opacity:0.25;}</style></defs><g id="Calque_2" data-name="Calque 2"><g id="Calque_3" data-name="Calque 3"><rect class="cls-1" width="55.66" height="27.09" rx="2.51"/><text class="cls-2" transform="translate(5.46 10.86)"><tspan class="cls-3">Q</tspan><tspan x="6.67" y="0">uick</tspan></text><text class="cls-4" transform="translate(4.8 21.8)">Baluc<tspan class="cls-5" x="25.88" y="0">h</tspan><tspan x="33.19" y="0">on</tspan></text><rect class="cls-6" x="5.78" y="12.47" width="44.14" height="0.19" rx="0.09"/><path class="cls-7" d="M41.43,11.47a1.61,1.61,0,0,1-.64.52l0,0-.08,0s0,0-.07,0l-.07,0a1.82,1.82,0,0,0-.46.25c-.13.11-.22.36-.3.31a3.08,3.08,0,0,1-1-.8,1.63,1.63,0,0,1-.25-1.3c.12,0,.07.54.55.59.32,0,.4-.28.56-.52a.52.52,0,0,1,.34-.27c.15,0,.26.32.54.38h0c.28,0,.49-.4.68-.39s.09.39.45.44.43-.29.5-.27S41.75,11.06,41.43,11.47Z"/><path class="cls-8" d="M40,12.42a.83.83,0,0,1-.33-.34,1.63,1.63,0,0,1-.08-.49"/><path class="cls-8" d="M40.41,12.14a.34.34,0,0,1-.17-.13.66.66,0,0,1,0-.31"/><path class="cls-9" d="M40.27,22.38a3.45,3.45,0,0,1-1.3-.25,2.08,2.08,0,0,1-.82-.61,3.3,3.3,0,0,1-.67-2.38,5,5,0,0,1,1.41-3.22l.06-.08a8,8,0,0,0,.8-1,3.74,3.74,0,0,0,.47-1.47c.06,0,.09-.1.13-.17a.77.77,0,0,1,.22-.32h.33a.3.3,0,0,0,.15-.07l0-.07,0,0c.25.16.5.32.77.53a5.21,5.21,0,0,1,1.53,1.91l.08.14a6.26,6.26,0,0,1,.41,4.13,3.94,3.94,0,0,1-2.09,2.55A4.1,4.1,0,0,1,40.27,22.38Z"/><path class="cls-10" d="M41.13,12.9a8.63,8.63,0,0,1,.72.5,5.2,5.2,0,0,1,1.51,1.89s0,.08.07.13a6.17,6.17,0,0,1,.41,4,3.88,3.88,0,0,1-2,2.49,4.12,4.12,0,0,1-1.53.32A3.49,3.49,0,0,1,39,22a2,2,0,0,1-.78-.58,3.26,3.26,0,0,1-.64-2.31A4.88,4.88,0,0,1,39,16L39,15.9a8.37,8.37,0,0,0,.81-1,3.86,3.86,0,0,0,.48-1.47.71.71,0,0,0,.12-.18.64.64,0,0,1,.2-.28h.11l.15,0a.31.31,0,0,0,.23-.1m-.08-.3a1.3,1.3,0,0,1-.08.17.08.08,0,0,1-.07,0c-.07,0-.17,0-.26,0a.21.21,0,0,0-.14,0c-.24.22-.26.49-.35.49l0,0v0a3.4,3.4,0,0,1-.45,1.48,9.86,9.86,0,0,1-.86,1.06,5.09,5.09,0,0,0-1.43,3.28,3.43,3.43,0,0,0,.69,2.45,2.16,2.16,0,0,0,.86.64,3.51,3.51,0,0,0,1.34.26,4.09,4.09,0,0,0,1.61-.34A4,4,0,0,0,44,19.52a6.29,6.29,0,0,0-.42-4.19,1.09,1.09,0,0,0-.08-.15A5.29,5.29,0,0,0,42,13.24a9.78,9.78,0,0,0-.87-.6.1.1,0,0,1-.05,0Z"/><path class="cls-8" d="M40.41,13.28a2.78,2.78,0,0,1,.14,1.12,3.35,3.35,0,0,1-.47,1.36"/><path class="cls-8" d="M40.89,12.87a2.23,2.23,0,0,1,.44,1.78A4.19,4.19,0,0,1,41,16.21"/><path class="cls-11" d="M44,19.52a4,4,0,0,1-2.15,2.62,3.83,3.83,0,0,1-3,.08,2.16,2.16,0,0,1-.86-.64.32.32,0,0,1,0-.09A5.16,5.16,0,0,0,41.9,21c2.57-1.93,1.51-5.76,1.51-5.76h0l.11,0a1.09,1.09,0,0,1,.08.15A6.29,6.29,0,0,1,44,19.52Z"/><path class="cls-10" d="M41.12,12.89a6.22,6.22,0,0,1,.73.52,5,5,0,0,1,1.57,2,6,6,0,0,1,.41,4,3.83,3.83,0,0,1-2,2.49,4.08,4.08,0,0,1-1.53.32A3.4,3.4,0,0,1,39,22a2.8,2.8,0,0,1-1.43-2.89A4.81,4.81,0,0,1,39,16a1.31,1.31,0,0,1,.13-.16,8,8,0,0,0,.73-.93,3.93,3.93,0,0,0,.49-1.46.76.76,0,0,0,.12-.19.7.7,0,0,1,.19-.28h.11l.15,0a.25.25,0,0,0,.23-.11M41,12.61a.48.48,0,0,1-.08.16.08.08,0,0,1-.07,0c-.07,0-.17,0-.26,0a.18.18,0,0,0-.13,0c-.24.21-.26.49-.35.49h0v0a3.25,3.25,0,0,1-.46,1.47,10.14,10.14,0,0,1-.85,1.07,5.06,5.06,0,0,0-1.43,3.27,3,3,0,0,0,1.55,3.1,3.7,3.7,0,0,0,1.34.25,4.25,4.25,0,0,0,1.61-.33A4,4,0,0,0,44,19.52a6.29,6.29,0,0,0-.42-4.19A5.27,5.27,0,0,0,42,13.25a7.62,7.62,0,0,0-.87-.6l-.06,0Z"/><path class="cls-7" d="M41,12.11A.28.28,0,0,0,40.7,12l-.08,0a1.58,1.58,0,0,0-.6.32,1,1,0,0,0-.35.35.24.24,0,0,0,0,.08.61.61,0,0,0,0,.4.44.44,0,0,0,.2.22c.17.11.41,0,.77-.23a1.26,1.26,0,0,0,.47-.54A.62.62,0,0,0,41,12.11Z"/><path class="cls-11" d="M40.54,14.52s-.1.09.07-.07a2.16,2.16,0,0,0,.28-1c0-.26.36,1,.52.78s-.1-1,0-1.05.29.23.5.36a1.46,1.46,0,0,0,.53.14l-1.27-.95-.59.4-.33.31a2.62,2.62,0,0,0-.14.63c.06,0,.22-.32.27-.32S40.4,14.69,40.54,14.52Z"/><path class="cls-11" d="M40,12.75s.68-.35.7-.28-.18.3-.15.34.39-.35.34-.48S39.9,12.62,40,12.75Z"/><path class="cls-11" d="M39.37,11c.27.15.47-.39.61-.15s.09.59.29.65.58-.63.69-.45-.09.58-.17.68-.12.12-.06.18.33-.08.39-.13.88-1,.88-1l-.5,0-.26-.37-.55.33s-.36.05-.47-.07-.25-.31-.36-.24A4.79,4.79,0,0,0,39.37,11Z"/></g></g></svg>